<svg xmlns="http://www.w3.org/2000/svg" width="32" height="32" viewBox="0 0 32 32" fill="none">
  <!-- Document body -->
  <path d="M6 4C6 2.89543 6.89543 2 8 2H19L26 9V28C26 29.1046 25.1046 30 24 30H8C6.89543 30 6 29.1046 6 28V4Z" fill="#4A90D9"/>
  <!-- Folded corner -->
  <path d="M19 2L26 9H21C19.8954 9 19 8.10457 19 7V2Z" fill="#3A7BC8" opacity="0.8"/>
  <!-- Text lines -->
  <rect x="10" y="13" width="12" height="1.5" rx="0.75" fill="white" opacity="0.9"/>
  <rect x="10" y="17" width="10" height="1.5" rx="0.75" fill="white" opacity="0.7"/>
  <rect x="10" y="21" width="12" height="1.5" rx="0.75" fill="white" opacity="0.9"/>
  <rect x="10" y="25" width="8" height="1.5" rx="0.75" fill="white" opacity="0.7"/>
</svg>
